<svg fill="none" height="23" viewBox="0 0 25 23" width="25" xmlns="http://www.w3.org/2000/svg"><path clip-rule="evenodd" d="m25 3.0811c-.9186.44293-1.9076.74246-2.9451.87629 1.0595-.68829 1.8724-1.77968 2.2554-3.079786-.9919.637306-2.0881 1.100946-3.2591 1.349496-.9332-1.08183-2.2671-1.757373-3.7433-1.757373-2.8306 0-5.1271 2.493463-5.1271 5.568483 0 .43655.0441.86036.1321 1.26824-4.26278-.23262-8.04131-2.44726-10.57257-5.82022-.44168.82532-.69408 1.78287-.69408 2.80256 0 1.93105.90538 3.63585 2.2818 4.63483-.83935-.02709-1.63174-.28042-2.32435-.69467v.06851c0 2.69904 1.76821 4.95034 4.11604 5.46014-.42995.1306-.88337.196-1.35147.196-.33016 0-.65299-.0335-.96554-.0988.65299 2.2114 2.54592 3.8222 4.79104 3.8653-1.75501 1.4944-3.96784 2.3851-6.36996 2.3851-.41381 0-.823211-.0255-1.22381-.0765 2.27006 1.5773 4.96713 2.4998 7.8623 2.4998 9.4353 0 14.5932-8.4841 14.5932-15.84343 0-.24217-.0044-.48435-.0132-.72175 1.0023-.78548 1.8724-1.76534 2.5577-2.88222z" fill="#000" fill-rule="evenodd"/></svg>